<svg xmlns="http://www.w3.org/2000/svg" xmlns:xlink="http://www.w3.org/1999/xlink" version="1.1" x="0px" y="0px" viewBox="0 0 500 625" style="enable-background:new 0 0 500 500;" xml:space="preserve"><path d="M185.11,216.69c-2.97-2.87-6.85-4.53-10.75-5.7c-9.78-2.88-19.96-4.02-30.15-3.94c0.07-5.95-0.6-14.7-1.17-20.65  c-0.31-3.48-0.65-7.14-2.52-10.18c-4.66-7.65-15.18-10.39-23.32-7.14c-4.84,2.02-9.17,5.49-12.07,9.87  c-1.96,3.38-2.99,7.23-3.86,11.02c-1.42,6.55-1.71,13.26-2.31,19.92c-10.3,1.51-20.3,2.93-31.44,4.71  c-9.69,1.87-22.38,5.39-24.57,16.51c-0.9,9.28,5.66,19.03,14.95,20.93c9.29,2.5,23.91,2.51,30.94,2.83  c1.95,0.17,4.11,0.23,7.47,0.41c0.42,10.09,1.32,20.1,3.35,28.1c0.07,0.21,0.13,0.44,0.18,0.68c0.62,4.16,1.51,8.5,4.13,11.88  c3.11,3.71,8.08,5.52,12.85,5.46c22.04-0.81,25.98-26.28,24.8-43.86c-0.02-1.62-0.54-5.27-0.8-6.93c5.15-1.36,20.24-0.33,28.83-2.59  C185.8,244.27,200.06,232.03,185.11,216.69z M134.88,251.37c-0.02,7.22,0.35,16.24-0.21,21.39c-0.04,0.36-0.08,0.73-0.12,1.09  c-0.13,0.83-0.28,1.67-0.45,2.49c-2.06,8.23-4.61,14.87-11.73,16.71c-4.26,1.01-9.73,1.23-11.86-1.41c8-0.46,13.94-7.82,15.18-15.52  c1.29-12.67,1.79-25.37,2.07-36.79c10.67-1.31,21.45-1.61,32.06-3.57c3.69-0.51,8.63-1.03,11.47-3.68c0.65-0.49,1.25-1.05,1.79-1.66  c2.6-2.79,3.34-6.35,2.77-9.7c1.39,0.71,2.69,1.45,3.76,2.62c8.11,7.56,1.78,16.07-9.08,17.84c-9.28,1.49-18.73,1.19-28.06,2.19  c-2.42,0.22-5.1,1.01-6.41,3.23C135.24,248.04,134.94,249.73,134.88,251.37z M136.69,179.37c2.12,6.73,2.55,18.16,2.56,27.77  c-3.12,0.14-6.23,0.43-9.34,0.79c0.26-5.72,0.81-12.07,0.89-19.18c0.2-5.32-1.53-10.76-5.46-14.48c-0.55-0.51-1.15-1-1.78-1.45  C129.01,172.48,134.25,174.71,136.69,179.37z M76.2,249.56c-10.18-0.72-19.08-1.31-24.08-6.09c8.83,5.62,20.31,1.2,30,0.17  c4.63-0.52,9.23-1.18,13.85-1.76c0.03,2.76,0.08,5.56,0.15,8.39C92.09,250.04,79.72,249.81,76.2,249.56z M289.14,294.82  c-10.1-4.41-21.38-1.55-31.89-0.46c-22.13,3.37-43.19,6.41-63.81,11.64c-4.77,0.83-9.46,1.99-13.95,3.87  c-6.43,2.72-14.23,7.76-13.62,15.66c0.9,6.3,5.16,12.14,10.69,15.23c4.06,2.19,8.74,2.8,13.29,2.89  c13.27,0.15,26.57-1.02,39.62-3.44c15.63-3.28,31.52-5.06,47.16-8.29c9.64-2.15,21.98-4.48,26.06-14.74  c1.63-4.85,0.37-10.35-2.58-14.44C297.27,299.16,293.26,296.68,289.14,294.82z M289.62,323.19c-13.19,5.01-26.88,6.2-41.93,8.68  c-18.85,3.62-37.82,7.3-57.11,6.93c-3.65,0.07-7.49-0.51-10.76-1.96c1.2-0.07,2.42-0.29,3.68-0.79c0.8-0.25,1.33-0.41,1.69-0.52  c0.7-0.15,1.4-0.3,2.1-0.44c12.04-2.58,24.29-4.02,36.33-6.61c16.47-3.21,32.71-8.1,49.48-9.49c11.08,0.37,16.61-14.01,8.46-21.23  c0.6,0.09,1.21,0.1,1.82,0.22C298.66,301.87,305.18,316.52,289.62,323.19z M361.23,147.64c1.18-10.48-1.82-23.31-12.72-27.36  c-8.05-3.43-15.82,2.3-21.03,8.07c-10.33,10.7-24.06,31.1-32.63,44.26c-0.81,1.25-16.08,25.47-28.1,52.29  c-1.7,3.78-2.73,8-1.91,12.14c2.02,12.22,14.07,17.39,25.07,12.86c8.19-3.9,13.27-12.07,17.83-19.58  c11.29-21.05,26.48-39.59,40.3-58.98C353.04,163.87,359.87,156.85,361.23,147.64z M287.39,245.67c-3.48,1.66-11.65,0.88-13.78-1.88  c-1.01-0.94-1.8-2.06-2.43-3.25c6.05,4.66,16.68,3.31,19.4-5.53c5.89-14.28,27.61-55.24,44.81-76.2  c4.21-6.96,12.24-13.08,14.34-20.83c1.56-5.88-2.47-11.61-7.83-13.66c0.41-0.08,0.82-0.16,1.28-0.21c1.26,0.01,1.56-0.09,4.59,1.15  c0.77,0.47,2.89,1.77,3.21,2.14c0.17,0.15,0.2,0.17,0.23,0.2c0.01,0.01,0,0,0.02,0.01c0.51,0.47,1,0.97,1.45,1.5  c0.12,0.15,0.19,0.23,0.26,0.32c0.04,0.06,0.11,0.16,0.26,0.36c2.85,4.97,3.59,10.11,3.34,15.95c-0.33,4.7-2.22,8.13-5.62,13.15  c-10.84,15.5-22.41,30.48-33.26,45.97C306.91,218.68,300.81,239.12,287.39,245.67z M355.11,196.53c-5.05-1.42-10.4-0.41-15.22,1.4  c-0.09,0.04-0.19,0.08-0.28,0.12c-4.55,1.62-7.1,5.7-7.58,10.04c-1.4,8.36,2.99,17.95,10.84,21.29c9.55,4.73,22.49-0.21,25.09-10.97  C371.81,207.85,365.2,199.32,355.11,196.53z M361.9,220.42c-2.71,4.31-7.14,6.26-12.98,5.76c-1.74-0.27-4.82-1.17-7.31-3.24  c-0.43-0.44-1.42-1.47-1.74-1.95c1.05,0.35,2.17,0.63,3.44,0.72c12.36,0.44,15.86-13.59,9.53-20.58c4.37,0.82,7.98,3.18,9.99,6.2  C365.46,210.98,363.84,216.61,361.9,220.42z M258.74,177.45c8.48,7.03,23.09,7.74,29.48-2.39c3.74-5.5,7.32-12.97,3.78-19.4  c-5.2-8.85-17.37-12.7-26.65-8.16c-4.23,2.1-6.39,4.08-8.22,6.98C252.84,161.95,250.71,171.38,258.74,177.45z M288.48,160.11  c0.76,3.93-2.82,11.79-7.34,15.45c-4.2,3.97-14.74,2.13-19-1.59c-2.23-2.15-3.17-3.27-3.47-4.99c1.89,2.21,4.69,3.79,8.5,4.06  c13.64,0.48,16.49-16.63,7.25-22.48C280.83,150.81,287.08,154.75,288.48,160.11z M468.93,292.17c-3.13-4.06-6.15-8.39-8.35-11.79  c-0.6-0.92-0.48-2.12,0.3-2.89c2.84-2.78,8.32-5.92,12.6-11.16c3.24-3.69,6.16-8.08,6.46-13.11c0.1-6.05-2.76-12.14-7.13-16.26  c-4.99-4.71-12.74-4.22-18.05-0.32c-5.02,2.94-9.9,6.56-14.33,9.79c-4.5-8.76-9.26-17.54-16.94-23.63  c-5.62-3.87-18.55-3.73-24.49-0.1c-0.03,0.02-0.05,0.04-0.08,0.06c-2.13,1.08-4.03,2.67-5.38,4.61c-1.34,2.29-1.81,4.99-1.62,7.62  c1.28,11.7,9.35,21.33,14.86,31.37c0.59,0.79,1.05,1.72,1.51,2.67c-8.92,6.1-17.36,13.03-25.16,20.49c-1.93,2.02-3.07,4.72-3.31,7.5  c-0.01,6.23,2.88,12.67,7.39,16.94c3.37,2.83,7.96,3.94,12.29,3.81c8.23-0.34,14.8-5.95,21.43-10.2c3.23-2.21,6.32-4.61,9.36-7.06  c2.21,3.16,4.56,6.24,6.86,9.28c5.71,7.05,12.47,14.18,21.31,17.07c9.48,2.67,18.89-2.31,19.12-12.76  C477.52,306.26,473.45,298.03,468.93,292.17z M424.12,229.78c3.41,3.61,8.46,12.32,12.35,19.47c-0.74,0.52-1.53,1.1-2.22,1.56  c-0.43,0.35-0.91,0.66-1.41,0.96c-3.46-5.09-6.41-9.6-9.94-15.9c-2.57-4.09-5.34-8.26-9.14-11.31  C417.53,225.21,421.54,226.79,424.12,229.78z M427.08,296.84c-3.57,2.99-8.26,6.32-10.59,7.88c-9.31,6.22-16,10.74-24.46,6.65  c-1.79-0.66-3.67-3.16-5.1-6.05c4.36,3.75,11.13,4.84,16.16,0.11c6.37-4.89,13.65-10.18,21.1-15.48c1.01,2.21,2.15,4.34,3.43,6.41  C427.43,296.52,427.24,296.68,427.08,296.84z M469.58,320.86c-1.9,1.93-6.87,2.31-10.72,0.98c-0.18-0.07-0.36-0.19-0.54-0.26  c2.64-0.8,5.04-2.46,6.61-4.92c3.01-4.47,2.51-10.93-1.15-14.89c-6.25-8.84-12.49-17.68-18.75-26.51  c10.71-7.51,20.27-14.26,26.18-18.94c2.32-2.38,3.18-5.42,2.96-8.4c0.41,1.27,0.73,2.64,0.93,4.14c0.27,1.86-1.28,6.77-5.05,10.83  c-2.69,3.41-7.93,7.53-12,10.55c-1.39,1.03-2.4,2.16-2.88,3.83c-1.18,4.09,3.08,8.26,5.44,11.46  C469.18,300.34,478.08,313.49,469.58,320.86z"/><text x="0" y="515" fill="#000000" font-size="5px" font-weight="bold" font-family="'Helvetica Neue', Helvetica, Arial-Unicode, Arial, Sans-serif">Created by Jan Wagner</text><text x="0" y="520" fill="#000000" font-size="5px" font-weight="bold" font-family="'Helvetica Neue', Helvetica, Arial-Unicode, Arial, Sans-serif">from the Noun Project</text></svg>