<svg xmlns="http://www.w3.org/2000/svg" width="25" height="18" viewBox="0 0 25 18">
  <path id="icons8-american-express" d="M2.5,7A2.507,2.507,0,0,0,0,9.5v13A2.507,2.507,0,0,0,2.5,25h20A2.507,2.507,0,0,0,25,22.5V9.5A2.507,2.507,0,0,0,22.5,7Zm0,1h20A1.493,1.493,0,0,1,24,9.5v13A1.493,1.493,0,0,1,22.5,24H2.5A1.493,1.493,0,0,1,1,22.5V9.5A1.493,1.493,0,0,1,2.5,8Zm1.781,5.453L2.422,17.7H3.531l.406-.953H6.031l.406.953H8.547V14.547L9.953,17.7h.953l1.422-3.109V17.7h1.047v-4.25H11.7l-1.281,2.859L9.141,13.453H7.5v4.094L5.672,13.453Zm10.469,0v4.266h4L20,16.3l1.234,1.422h1.328l-1.875-2.187,1.875-2.078H21.234l-1.2,1.328-1.156-1.328Zm-9.8.891.656,1.5H4.328Zm10.828.016,2.547.016,1.016,1.156L18.2,16.813H15.781v-.844h2.313v-.812H15.781Z" transform="translate(0 -7)"/>
</svg>
