<svg xmlns="http://www.w3.org/2000/svg" width="46.5" height="46.489" viewBox="0 0 46.5 46.489">
  <path id="calender-svgrepo-com_1_" data-name="calender-svgrepo-com (1)" d="M43.594,4.462H31.959v-2.9a1.453,1.453,0,1,0-2.906,0v2.9H17.427v-2.9a1.453,1.453,0,0,0-2.906,0v2.9H2.906A2.906,2.906,0,0,0,0,7.368V43.7A2.906,2.906,0,0,0,2.906,46.6H43.594A2.906,2.906,0,0,0,46.5,43.7V7.368a2.906,2.906,0,0,0-2.906-2.906Zm0,39.234H2.906V7.368H14.521V8.832a1.453,1.453,0,0,0,2.906,0V7.368H29.052V8.832a1.453,1.453,0,1,0,2.906,0V7.368H43.594ZM33.422,23.353h2.906A1.454,1.454,0,0,0,37.781,21.9V18.993a1.454,1.454,0,0,0-1.453-1.453H33.422a1.454,1.454,0,0,0-1.453,1.453V21.9A1.454,1.454,0,0,0,33.422,23.353Zm0,11.624h2.906a1.453,1.453,0,0,0,1.453-1.453V30.618a1.454,1.454,0,0,0-1.453-1.453H33.422a1.454,1.454,0,0,0-1.453,1.453v2.906A1.453,1.453,0,0,0,33.422,34.977ZM24.7,29.165H21.8a1.454,1.454,0,0,0-1.453,1.453v2.906A1.453,1.453,0,0,0,21.8,34.977H24.7a1.453,1.453,0,0,0,1.453-1.453V30.618A1.454,1.454,0,0,0,24.7,29.165Zm0-11.624H21.8a1.454,1.454,0,0,0-1.453,1.453V21.9A1.454,1.454,0,0,0,21.8,23.353H24.7A1.454,1.454,0,0,0,26.156,21.9V18.993A1.453,1.453,0,0,0,24.7,17.54Zm-11.625,0H10.172a1.454,1.454,0,0,0-1.453,1.453V21.9a1.454,1.454,0,0,0,1.453,1.453h2.906A1.454,1.454,0,0,0,14.531,21.9V18.993A1.453,1.453,0,0,0,13.078,17.54Zm0,11.624H10.172a1.454,1.454,0,0,0-1.453,1.453v2.906a1.453,1.453,0,0,0,1.453,1.453h2.906a1.453,1.453,0,0,0,1.453-1.453V30.618A1.454,1.454,0,0,0,13.078,29.165Z" transform="translate(0 -0.113)"/>
</svg>
