<svg xmlns="http://www.w3.org/2000/svg" xmlns:xlink="http://www.w3.org/1999/xlink" viewBox="0 0 24 30" version="1.1" x="0px" y="0px"><title>Ico/Actions/Folder plus</title><g stroke="none" stroke-width="1" fill="none" fill-rule="evenodd"><path d="M10.1715729,4 L6,4 C4.34314575,4 3,5.34314575 3,7 L3,16 C3,18.209139 4.790861,20 7,20 L17,20 C19.209139,20 21,18.209139 21,16 L21,9 C21,7.34314575 19.6568542,6 18,6 L13.8284271,6 C13.5632106,6 13.3088567,5.89464316 13.1213203,5.70710678 L12.2928932,4.87867966 C11.7302841,4.31607052 10.9672223,4 10.1715729,4 Z M6,6 L10.1715729,6 C10.4367894,6 10.6911433,6.10535684 10.8786797,6.29289322 L11.7071068,7.12132034 C12.2697159,7.68392948 13.0327777,8 13.8284271,8 L18,8 C18.5522847,8 19,8.44771525 19,9 L19,16 C19,17.1045695 18.1045695,18 17,18 L7,18 C5.8954305,18 5,17.1045695 5,16 L5,7 C5,6.44771525 5.44771525,6 6,6 Z M14,12 L13,12 L13,11 C13,10.4477153 12.5522847,10 12,10 C11.4477153,10 11,10.4477153 11,11 L11,12 L10,12 C9.44771525,12 9,12.4477153 9,13 C9,13.5522847 9.44771525,14 10,14 L11,14 L11,15 C11,15.5522847 11.4477153,16 12,16 C12.5522847,16 13,15.5522847 13,15 L13,14 L14,14 C14.5522847,14 15,13.5522847 15,13 C15,12.4477153 14.5522847,12 14,12 Z" fill="#000000"/></g><text x="0" y="39" fill="#000000" font-size="5px" font-weight="bold" font-family="'Helvetica Neue', Helvetica, Arial-Unicode, Arial, Sans-serif">Created by Evgenii Likhachov</text><text x="0" y="44" fill="#000000" font-size="5px" font-weight="bold" font-family="'Helvetica Neue', Helvetica, Arial-Unicode, Arial, Sans-serif">from the Noun Project</text></svg>