<svg xmlns="http://www.w3.org/2000/svg" version="1.1" viewBox="-5.0 -10.0 110.0 135.0">
 <path d="m38.172 53.969c0-0.73828-0.60156-1.3516-1.3516-1.3516h-8.8516c-1.3789 0-2.5-1.1211-2.5-2.5v-2.8086c1.3516-0.37109 2.3984-1.4492 2.6914-2.8906l0.26953-1.3281c1.6211-0.58984 2.7891-2.1289 2.7891-3.9492v-2.9609c0-0.71094-0.28125-1.3398-0.71875-1.8281 0.16016-1.5703 0.92969-2.75 1.8789-4.1797 1.3398-2.0195 2.8516-4.3203 2.8516-8.2109 0-6.1211-4.9805-11.09-11.09-11.09s-11.09 4.9805-11.09 11.09c0 3.8984 1.5117 6.1914 2.8516 8.2109 0.94922 1.4414 1.7188 2.6094 1.8789 4.1797-0.44141 0.48047-0.71875 1.1211-0.71875 1.8281v2.9609c0 1.8203 1.1719 3.3594 2.7891 3.9492l0.26953 1.3281c0.28906 1.4414 1.3398 2.5195 2.6914 2.8906v2.8086c0 2.8594 2.3281 5.1914 5.1914 5.1914h8.8516c0.71484 0 1.3164-0.59766 1.3164-1.3398zm-16.91-13.297c-0.83984 0-1.5195-0.67969-1.5195-1.5195v-2.9609c0-0.011718 0.011718-0.03125 0.03125-0.03125h8.7305c0.011719 0 0.03125 0.011719 0.03125 0.03125v2.9609c0 0.83984-0.67969 1.5195-1.5195 1.5195zm-5.543-18.711c0-4.6289 3.7695-8.3984 8.3984-8.3984 4.6289 0 8.3984 3.7695 8.3984 8.3984 0 3.0898-1.1719 4.8594-2.3984 6.7305-0.92969 1.4102-1.8711 2.8594-2.2109 4.7695h-0.75v-2.1797l2.0391-4.3984c0.078126-0.17969 0.12891-0.37109 0.12891-0.57031v-4.0508c0-0.73828-0.60156-1.3516-1.3516-1.3516-0.73828 0-1.3516 0.60156-1.3516 1.3516v3.7617l-2.0391 4.3984c-0.078125 0.17969-0.12891 0.37109-0.12891 0.57031v2.4805h-0.67969v-2.4805c0-0.19922-0.039063-0.39063-0.12891-0.57031l-2.0391-4.3984v-3.7617c0-0.73828-0.60156-1.3516-1.3516-1.3516-0.73828 0-1.3516 0.60156-1.3516 1.3516v4.0508c0 0.19922 0.039062 0.39062 0.12891 0.57031l2.0391 4.3984v2.1797h-0.75c-0.33984-1.9102-1.2891-3.3711-2.2109-4.7695-1.2188-1.8711-2.3906-3.6406-2.3906-6.7305zm6.9102 21.398h3l-0.10938 0.53125c-0.10938 0.53125-0.53906 0.87891-1.0703 0.87891h-0.64062c-0.53906 0-0.96875-0.35156-1.0703-0.87891zm0.15234-36.438v-3.0938c0-0.73828 0.60156-1.3516 1.3516-1.3516s1.3516 0.60156 1.3516 1.3516v3.0898c0 0.73828-0.60156 1.3516-1.3516 1.3516-0.75391 0-1.3516-0.59766-1.3516-1.3477zm15.117 26.906c0.53125 0.53125 0.53125 1.3789 0 1.8984-0.26172 0.26172-0.60938 0.39063-0.94922 0.39063-0.33984 0-0.69141-0.12891-0.94922-0.39063l-2.1914-2.1914c-0.53125-0.53125-0.53125-1.3789 0-1.8984 0.53125-0.53125 1.3789-0.53125 1.8984 0zm1.2617-13.219h3.0898c0.73828 0 1.3516 0.60156 1.3516 1.3516 0 0.73828-0.60156 1.3516-1.3516 1.3516h-3.0898c-0.73828 0-1.3516-0.60156-1.3516-1.3516s0.61328-1.3516 1.3516-1.3516zm-5.3594-8.3281c-0.53125-0.53125-0.53125-1.3789 0-1.8984l2.1914-2.1914c0.53125-0.53125 1.3789-0.53125 1.8984 0 0.53125 0.53125 0.53125 1.3789 0 1.8984l-2.1914 2.1914c-0.26172 0.26172-0.60938 0.39062-0.94922 0.39062s-0.67969-0.13281-0.94922-0.39062zm-23.449-2.1914c-0.53125-0.53125-0.53125-1.3789 0-1.8984 0.53125-0.53125 1.3789-0.53125 1.8984 0l2.1914 2.1914c0.53125 0.53125 0.53125 1.3789 0 1.8984-0.26172 0.26172-0.60938 0.39062-0.94922 0.39062-0.33984 0-0.69141-0.12891-0.94922-0.39062zm-1.2617 13.219h-3.1016c-0.73828 0-1.3516-0.60156-1.3516-1.3516 0-0.73828 0.60156-1.3516 1.3516-1.3516h3.0898c0.73828 0 1.3516 0.60156 1.3516 1.3516 0.011718 0.74219-0.60156 1.3516-1.3398 1.3516zm5.3594 8.332c0.53125 0.53125 0.53125 1.3789 0 1.8984l-2.1914 2.1914c-0.26172 0.26172-0.60937 0.39062-0.94922 0.39062s-0.69141-0.12891-0.94922-0.39062c-0.53125-0.53125-0.53125-1.3789 0-1.8984l2.1914-2.1914c0.51953-0.53125 1.3711-0.53125 1.8984 0zm80.902-6.6719c0-8.3516-6.7891-15.141-15.141-15.141-8.3516 0-15.141 6.7891-15.141 15.141 0 7.8984 6.0781 14.391 13.801 15.078v10.07c0 1.3789-1.1211 2.5-2.5 2.5h-8.8516c-0.73828 0-1.3516 0.60156-1.3516 1.3516 0 0.73828 0.60156 1.3516 1.3516 1.3516h8.8516c2.8594 0 5.1914-2.3281 5.1914-5.1914l-0.003906-10.078c7.7227-0.67969 13.793-7.1797 13.793-15.082zm-15.141 12.461c-6.8711 0-12.449-5.5898-12.449-12.449 0-6.8711 5.5898-12.449 12.449-12.449 6.8711 0 12.449 5.5898 12.449 12.449s-5.5898 12.449-12.449 12.449zm4.6602-9.1406c0 2.1016-1.3984 3.8789-3.3086 4.4609v1.1406c0 0.73828-0.60156 1.3516-1.3516 1.3516-0.73828 0-1.3516-0.60156-1.3516-1.3516v-1.1406c-1.2109-0.35938-2.2383-1.2109-2.8203-2.3789-0.32812-0.67188-0.058593-1.4688 0.60156-1.8086 0.66016-0.32812 1.4688-0.058594 1.8086 0.60156 0.33984 0.67188 1.0117 1.0898 1.7617 1.0898 1.0898 0 1.9688-0.87891 1.9688-1.9688 0-1.1602-1.1914-1.8008-2.2188-1.9883-2.6406-0.5-4.4102-2.3594-4.4102-4.6406 0-2.1016 1.3984-3.8789 3.3086-4.4609v-1.1406c0-0.73828 0.60156-1.3516 1.3516-1.3516 0.73828 0 1.3516 0.60156 1.3516 1.3516v1.1406c1.2109 0.35938 2.2383 1.2109 2.8203 2.3789 0.32813 0.66016 0.058594 1.4688-0.60156 1.8086-0.66016 0.32813-1.4688 0.058594-1.8086-0.60156-0.33984-0.67188-1.0117-1.0898-1.7617-1.0898-1.0898 0-1.9688 0.87891-1.9688 1.9688 0 1.1602 1.1914 1.8008 2.2188 1.9883 2.6406 0.5 4.4102 2.3633 4.4102 4.6406zm-17.68 43.57c-3.8594-3.8398-9.0508-5.8711-15.02-5.8711s-11.172 2.0312-15.02 5.8711c-3.6602 3.6484-5.8906 8.8203-6.2695 14.578-0.10937 1.6016 0.5 3.0586 1.6992 4.1094 4.8398 4.2383 12.531 6.9688 19.59 6.9688s14.75-2.7383 19.578-6.9688c1.2109-1.0586 1.8086-2.5195 1.7109-4.1094-0.38281-5.7578-2.6094-10.938-6.2695-14.578zm2.7891 16.66c-4.3086 3.7695-11.469 6.3086-17.809 6.3086s-13.5-2.5312-17.809-6.3086c-0.57812-0.5-0.83984-1.1484-0.78906-1.9102 0.71094-10.73 8.1797-17.93 18.602-17.93s17.891 7.2109 18.602 17.93c0.042968 0.76172-0.22656 1.4102-0.79688 1.9102zm-17.809-23.629c6.0195 0 10.922-4.8984 10.922-10.922 0-6.0195-4.8984-10.922-10.922-10.922-6.0195 0-10.922 4.8984-10.922 10.922 0 6.0195 4.8984 10.922 10.922 10.922zm0-19.152c4.5391 0 8.2305 3.6914 8.2305 8.2305s-3.6914 8.2305-8.2305 8.2305-8.2305-3.6914-8.2305-8.2305 3.6875-8.2305 8.2305-8.2305z"/>
<text x="0.0" y="117.5" font-size="5.0" font-weight="bold" font-family="Arbeit Regular, Helvetica, Arial-Unicode, Arial, Sans-serif" fill="#000000">Created by Fajar Studio</text><text x="0.0" y="122.5" font-size="5.0" font-weight="bold" font-family="Arbeit Regular, Helvetica, Arial-Unicode, Arial, Sans-serif" fill="#000000">from Noun Project</text></svg>