<svg xmlns="http://www.w3.org/2000/svg" width="94.593" height="133.832" viewBox="0 0 94.593 133.832">
  <path id="Path_110" data-name="Path 110" d="M168.664,61.258l12.67-10.275c7.515-6.092,11.78-14.6,11.78-23.506V12.657a11.85,11.85,0,0,0-4.288-8.949A15.837,15.837,0,0,0,178.475,0H115.158a15.832,15.832,0,0,0-10.349,3.708,11.844,11.844,0,0,0-4.288,8.949V27.476c0,8.907,4.263,17.414,11.777,23.506l12.67,10.271a2.82,2.82,0,0,1,1.1,2.187v4.952a2.813,2.813,0,0,1-1.093,2.182L112.3,80.85c-7.515,6.09-11.777,14.6-11.777,23.506v14.819a11.842,11.842,0,0,0,4.288,8.949,15.834,15.834,0,0,0,10.349,3.708h63.316a15.842,15.842,0,0,0,10.351-3.708,11.853,11.853,0,0,0,4.288-8.949V104.356c0-8.906-4.265-17.416-11.78-23.506l-12.67-10.273a2.823,2.823,0,0,1-1.1-2.185V63.44A2.813,2.813,0,0,1,168.664,61.258Zm13.273,57.918a2.77,2.77,0,0,1-1.013,2.116,3.711,3.711,0,0,1-2.449.878H115.158a3.717,3.717,0,0,1-2.449-.878,2.778,2.778,0,0,1-1.013-2.116V104.357A21.253,21.253,0,0,1,119.941,87.9l12.67-10.275a11.921,11.921,0,0,0,4.627-9.233V63.44a11.917,11.917,0,0,0-4.629-9.235L119.941,43.933A21.249,21.249,0,0,1,111.7,27.477V12.657a2.785,2.785,0,0,1,1.013-2.118,3.725,3.725,0,0,1,2.449-.876h63.316a3.722,3.722,0,0,1,2.449.876,2.778,2.778,0,0,1,1.013,2.118V27.476a21.255,21.255,0,0,1-8.243,16.456L161.024,54.2a11.918,11.918,0,0,0-4.629,9.235v4.952a11.932,11.932,0,0,0,4.629,9.237L173.694,87.9a21.265,21.265,0,0,1,8.243,16.458v14.82Z" transform="translate(-99.521 1)" fill="#fff" stroke="#000" stroke-width="2"/>
</svg>
