<svg xmlns="http://www.w3.org/2000/svg" width="45.495" height="40.907" viewBox="0 0 45.495 40.907">
  <g id="noun-internet-of-things-6857372" transform="translate(-178.128 80.138)">
    <path id="Icon4" d="M3.129,45.8c0-.019,0-.036,0-.053l0-.252a1.057,1.057,0,0,1,.059-.341.974.974,0,0,1,.182-.305L10.1,37.08a.857.857,0,0,1,.648-.3H25.32V26.53H22.772v7.456a.555.555,0,0,1-.555.555H19.2a2.342,2.342,0,1,1,0-1.111h2.461v-6.9H20.249v2.785a.555.555,0,0,1-.555.555H15.838a2.342,2.342,0,1,1,0-1.111h3.3V26.53H17.064A5.476,5.476,0,0,1,11.6,21.066v-1.1a5.429,5.429,0,0,1,1.206-3.412,5.5,5.5,0,0,1,2.656-1.809,7.271,7.271,0,0,1,13.57-3.236,5.82,5.82,0,0,1,.806-.269,5.71,5.71,0,0,1,7.1,5.246,5.048,5.048,0,0,1-.728,10.042H32.619v2.229h3.3a2.342,2.342,0,1,1,0,1.111H32.065a.555.555,0,0,1-.555-.555V26.532H30.1v6.9h2.461a2.342,2.342,0,1,1,0,1.111H29.542a.555.555,0,0,1-.555-.555l-.006-7.458h-2.55V36.779h14.43a1,1,0,0,1,.76.345l6.66,7.581a1.33,1.33,0,0,1,.341.925l0,.123a.294.294,0,0,1,0,.042v.986a1.981,1.981,0,0,1-1.977,1.977l-41.54,0a1.981,1.981,0,0,1-1.977-1.977Zm22.749-2.474a2.343,2.343,0,0,1-.555-4.62v-.815H14.114l-4.8,7.052H39.637l-4.491-7.05H26.431v.815a2.342,2.342,0,0,1-.554,4.618Zm-.872-1.471a1.236,1.236,0,1,0-.36-.872A1.226,1.226,0,0,0,25.006,41.854ZM37.322,30.187a1.236,1.236,0,1,0-.36-.872A1.226,1.226,0,0,0,37.322,30.187Zm-3.367,4.671a1.236,1.236,0,1,0-.36-.872A1.226,1.226,0,0,0,33.956,34.858Zm-20.4-4.309a1.23,1.23,0,1,0-.872-.36A1.234,1.234,0,0,0,13.559,30.549Zm3.367,4.669a1.23,1.23,0,1,0-.872-.36A1.234,1.234,0,0,0,16.926,35.218ZM31.12,17.571a7.411,7.411,0,0,0-10.483,0,.555.555,0,1,0,.785.785,6.289,6.289,0,0,1,8.914,0,.555.555,0,0,0,.785-.785Zm-1.573,1.573a5.192,5.192,0,0,0-7.34,0,.555.555,0,0,0,.785.785,4.114,4.114,0,0,1,1.321-.887,4.048,4.048,0,0,1,1.562-.307,4.1,4.1,0,0,1,1.562.307,4.055,4.055,0,0,1,1.321.887.556.556,0,0,0,.789-.785Zm-1.64,1.638a2.867,2.867,0,0,0-3.126-.624,2.922,2.922,0,0,0-.935.622.555.555,0,0,0,.785.785,1.764,1.764,0,0,1,2.493,0,.554.554,0,1,0,.783-.783Zm-6.495,4.639H36.206a3.94,3.94,0,0,0,.157-7.877.553.553,0,0,1-.533-.573l0-.1c0-.025,0,0,0-.095a4.6,4.6,0,0,0-6.783-4.047A.553.553,0,0,1,28.3,12.5l-.011-.025h0A6.162,6.162,0,0,0,16.56,15.124c0,.106,0-.032,0,.021v.025a.551.551,0,0,1-.442.548,4.375,4.375,0,0,0-3.41,4.252v1.1a4.369,4.369,0,0,0,4.355,4.355H19.69ZM36.456,37.889l4.491,7.05h6.068l-6.194-7.05Zm3.17,2.083,1.38,1.953a.554.554,0,1,0,.906-.637l-1.38-1.953a.554.554,0,1,0-.906.637ZM7.974,44.942l4.8-7.05H10.859l-6.1,7.05Zm39.54,1.109H4.238v.734a.856.856,0,0,0,.256.612.868.868,0,0,0,.612.256h41.54a.856.856,0,0,0,.612-.256.868.868,0,0,0,.256-.612Z" transform="translate(175 -87.993)" fill-rule="evenodd"/>
  </g>
</svg>
