<svg xmlns="http://www.w3.org/2000/svg" width="33" height="50.732" viewBox="0 0 33 50.732">
  <g id="Icon1" transform="translate(-3318 -267)">
    <path id="Path_68" data-name="Path 68" d="M65.143,39h4.714A3.143,3.143,0,0,0,73,35.857V31.143A3.143,3.143,0,0,0,69.857,28H65.143A3.143,3.143,0,0,0,62,31.143v4.714A3.143,3.143,0,0,0,65.143,39Z" transform="translate(3271.714 250.103)"/>
    <path id="Path_69" data-name="Path 69" d="M41,31.143A3.143,3.143,0,0,0,37.857,28H33.143A3.143,3.143,0,0,0,30,31.143v4.714A3.143,3.143,0,0,0,33.143,39h4.714A3.143,3.143,0,0,0,41,35.857Z" transform="translate(3291.143 250.103)"/>
    <path id="Path_70" data-name="Path 70" d="M37.857,60H33.143A3.143,3.143,0,0,0,30,63.143v4.714A3.143,3.143,0,0,0,33.143,71h4.714A3.143,3.143,0,0,0,41,67.857V63.143A3.143,3.143,0,0,0,37.857,60Z" transform="translate(3291.143 230.793)"/>
    <path id="Path_71" data-name="Path 71" d="M65.143,60A3.143,3.143,0,0,0,62,63.143v11a3.143,3.143,0,0,0,3.143,3.143h11a3.143,3.143,0,0,0,3.143-3.143v-11A3.143,3.143,0,0,0,76.143,60Zm11,9.267a.154.154,0,0,1-.151.171q-.547.081-1.094.158a.1.1,0,0,0-.1.088,4.047,4.047,0,0,1-.469,1.142.071.071,0,0,0,0,.1c.227.294.45.59.675.884a.165.165,0,0,1-.015.257l-.843.86a.2.2,0,0,1-.136.076.22.22,0,0,1-.126-.054c-.3-.22-.6-.437-.9-.657a.12.12,0,0,0-.09,0,4.081,4.081,0,0,1-1.232.517c-.055.013-.065.041-.072.086q-.079.554-.16,1.107a.155.155,0,0,1-.174.149H70.022a.156.156,0,0,1-.175-.155c-.053-.367-.107-.732-.158-1.1a.092.092,0,0,0-.082-.09,4.009,4.009,0,0,1-1.132-.461.164.164,0,0,0-.123.006c-.29.224-.582.446-.874.667a.205.205,0,0,1-.123.053.193.193,0,0,1-.13-.067l-.864-.847a.164.164,0,0,1-.022-.257c.218-.3.436-.6.656-.9a.073.073,0,0,0,0-.1,4.046,4.046,0,0,1-.516-1.227c-.013-.056-.042-.067-.091-.073l-1.1-.16a.156.156,0,0,1-.152-.178V68.026a.156.156,0,0,1,.151-.178l1.1-.16c.046-.006.077-.016.091-.073a4.055,4.055,0,0,1,.471-1.155.071.071,0,0,0,0-.1c-.227-.294-.451-.589-.676-.884a.165.165,0,0,1,.015-.257c.284-.289.566-.581.851-.868a.19.19,0,0,1,.126-.065.213.213,0,0,1,.122.049q.451.325.9.656a.14.14,0,0,0,.1,0,4.072,4.072,0,0,1,1.221-.513.088.088,0,0,0,.077-.088c.051-.369.106-.737.159-1.107a.157.157,0,0,1,.175-.149h1.241a.155.155,0,0,1,.174.155c.054.367.108.732.16,1.1a.093.093,0,0,0,.082.09,4.03,4.03,0,0,1,1.132.461.162.162,0,0,0,.122-.006c.289-.224.582-.446.874-.667a.21.21,0,0,1,.124-.053.191.191,0,0,1,.129.067l.864.848a.163.163,0,0,1,.021.255c-.218.3-.436.6-.656.9a.073.073,0,0,0,0,.1,4.053,4.053,0,0,1,.515,1.227c.013.056.044.066.092.073l1.1.16a.155.155,0,0,1,.152.171Q76.143,68.642,76.142,69.267Z" transform="translate(3271.714 230.826)"/>
    <circle id="Ellipse_102" data-name="Ellipse 102" cx="2.626" cy="2.626" r="2.626" transform="translate(3339.731 296.836)"/>
    <path id="Path_72" data-name="Path 72" d="M25.185,50.732H48.672a3.178,3.178,0,0,0,3.185-3.171V42.805H23.571V7.927H50.286V22.2h1.571V3.171A3.178,3.178,0,0,0,48.673,0H25.185A3.178,3.178,0,0,0,22,3.171v44.39A3.178,3.178,0,0,0,25.185,50.732ZM33,45.976h7.857a.793.793,0,0,1,0,1.585H33a.793.793,0,0,1,0-1.585ZM40.857,3.171h1.571a.793.793,0,0,1,0,1.585H40.857a.793.793,0,0,1,0-1.585Zm-9.429,0h6.286a.793.793,0,0,1,0,1.585H31.429a.793.793,0,0,1,0-1.585Z" transform="translate(3296 267)"/>
  </g>
</svg>
