<svg xmlns="http://www.w3.org/2000/svg" width="45.853" height="48.039" viewBox="0 0 45.853 48.039">
  <g id="Icon3" transform="translate(-4.637 -2.476)">
    <path id="Path_74" data-name="Path 74" d="M21.588,28.5a.685.685,0,0,0-.683-.683H16.43a1.265,1.265,0,0,1-1.264-1.264v-1.42a1.89,1.89,0,0,0,1.36-1.461L16.663,23a2.129,2.129,0,0,0,1.41-2v-1.5a1.376,1.376,0,0,0-.363-.924,4.621,4.621,0,0,1,.95-2.113,6.867,6.867,0,0,0,1.441-4.15,5.606,5.606,0,0,0-11.211,0,6.856,6.856,0,0,0,1.441,4.15,4.648,4.648,0,0,1,.95,2.113,1.363,1.363,0,0,0-.363.924v1.5a2.132,2.132,0,0,0,1.41,2l.136.671a1.887,1.887,0,0,0,1.36,1.461v1.42a2.628,2.628,0,0,0,2.624,2.624h4.474a.675.675,0,0,0,.665-.677ZM13.04,21.783a.768.768,0,0,1-.768-.768v-1.5a.017.017,0,0,1,.016-.016H16.7a.017.017,0,0,1,.016.016v1.5a.768.768,0,0,1-.768.768Zm-2.8-9.458a4.245,4.245,0,0,1,8.49,0,5.615,5.615,0,0,1-1.212,3.4A6.312,6.312,0,0,0,16.4,18.138H16.02v-1.1l1.031-2.223a.723.723,0,0,0,.065-.288V12.477a.683.683,0,0,0-1.366,0v1.9L14.719,16.6a.723.723,0,0,0-.065.288v1.254H14.31V16.89a.635.635,0,0,0-.065-.288l-1.031-2.223v-1.9a.683.683,0,0,0-1.366,0v2.048a.635.635,0,0,0,.065.288l1.031,2.223v1.1h-.379a6.329,6.329,0,0,0-1.118-2.411,5.638,5.638,0,0,1-1.208-3.4Zm3.493,10.816h1.516l-.055.269a.541.541,0,0,1-.541.444h-.324a.537.537,0,0,1-.541-.444Zm.077-18.418V3.159a.683.683,0,0,1,1.366,0V4.721a.683.683,0,0,1-1.366,0Zm7.641,13.6a.679.679,0,0,1-.96.96l-1.108-1.108a.679.679,0,0,1,.96-.96Zm.638-6.682h1.562a.683.683,0,0,1,0,1.366H22.087a.683.683,0,1,1,0-1.366Zm-2.709-4.21a.672.672,0,0,1,0-.96l1.108-1.108a.679.679,0,0,1,.96.96L20.338,7.431a.679.679,0,0,1-.48.2.694.694,0,0,1-.48-.2ZM7.526,6.324a.679.679,0,0,1,.96-.96L9.593,6.472a.679.679,0,0,1-.96.96Zm-.638,6.682H5.32a.683.683,0,0,1,0-1.366H6.882a.683.683,0,0,1,.006,1.366ZM9.6,17.217a.672.672,0,0,1,0,.96L8.489,19.284a.679.679,0,1,1-.96-.96l1.108-1.108a.672.672,0,0,1,.96,0ZM50.49,13.845a7.653,7.653,0,1,0-8.331,7.621v5.09A1.265,1.265,0,0,1,40.9,27.82H36.422a.683.683,0,0,0,0,1.366H40.9a2.628,2.628,0,0,0,2.624-2.624l0-5.094a7.658,7.658,0,0,0,6.972-7.623Zm-7.653,6.3a6.293,6.293,0,1,1,6.293-6.293A6.3,6.3,0,0,1,42.837,20.143Zm2.356-4.62a2.361,2.361,0,0,1-1.672,2.255v.577a.683.683,0,0,1-1.366,0v-.577a2.338,2.338,0,0,1-1.426-1.2.681.681,0,0,1,1.218-.61,1,1,0,0,0,1.886-.444c0-.586-.6-.91-1.122-1.005a2.49,2.49,0,0,1-2.229-2.346,2.361,2.361,0,0,1,1.672-2.255V9.339a.683.683,0,0,1,1.366,0v.577a2.338,2.338,0,0,1,1.426,1.2.681.681,0,0,1-1.218.61,1,1,0,0,0-1.886.444c0,.586.6.91,1.122,1.005A2.491,2.491,0,0,1,45.192,15.523ZM36.256,37.546a10.492,10.492,0,0,0-7.592-2.968,10.482,10.482,0,0,0-7.592,2.968A11.382,11.382,0,0,0,17.9,44.915a2.481,2.481,0,0,0,.859,2.077,15.671,15.671,0,0,0,19.8,0,2.5,2.5,0,0,0,.865-2.077,11.383,11.383,0,0,0-3.169-7.369Zm1.41,8.421a14.3,14.3,0,0,1-18,0,1.121,1.121,0,0,1-.4-.966c.359-5.424,4.135-9.063,9.4-9.063s9.043,3.645,9.4,9.063a1.146,1.146,0,0,1-.4.966Zm-9-11.944A5.521,5.521,0,1,0,23.143,28.5,5.527,5.527,0,0,0,28.664,34.023Zm0-9.681A4.16,4.16,0,1,1,24.5,28.5,4.164,4.164,0,0,1,28.664,24.343Z"/>
  </g>
</svg>
