<svg xmlns="http://www.w3.org/2000/svg" version="1.1" viewBox="-5.0 -10.0 110.0 135.0">
 <path d="m3.1289 86.039c0-0.039062 0.003906-0.074218 0.003906-0.10937l0.003907-0.51953c0.003906-0.25 0.042969-0.48438 0.12109-0.70312 0.082032-0.22656 0.20703-0.43359 0.375-0.62891l13.855-16.004c0.16797-0.19531 0.37109-0.34766 0.59766-0.45312 0.23047-0.10547 0.47656-0.16406 0.73828-0.16406h30.031v-21.121h-5.25v15.363c0 0.63281-0.51172 1.1445-1.1445 1.1445h-6.2109c-0.21094 0.875-0.66406 1.6523-1.2773 2.2695-0.875 0.875-2.082 1.4141-3.4141 1.4141-1.332 0-2.5391-0.53906-3.4141-1.4141-0.87109-0.87109-1.4141-2.082-1.4141-3.4141s0.53906-2.5391 1.4141-3.4141 2.082-1.4141 3.4141-1.4141c1.332 0 2.5391 0.53906 3.4141 1.4141 0.61719 0.61719 1.0664 1.3945 1.2773 2.2695h5.0703v-14.219h-2.9141v5.7383c0 0.63281-0.51172 1.1445-1.1445 1.1445h-7.9453c-0.21094 0.875-0.66406 1.6523-1.2773 2.2695-0.875 0.875-2.082 1.4141-3.4141 1.4141s-2.5391-0.53906-3.4141-1.4141-1.4141-2.082-1.4141-3.4141 0.53906-2.5391 1.4141-3.4141c0.87109-0.87109 2.082-1.4141 3.4141-1.4141s2.5391 0.53906 3.4141 1.4141c0.61719 0.61719 1.0664 1.3945 1.2773 2.2695h6.8047v-4.5938h-4.2773c-3.0977 0-5.9141-1.2656-7.9531-3.3047s-3.3047-4.8555-3.3047-7.9531v-2.2578c0-2.6523 0.92969-5.0977 2.4844-7.0312 1.3945-1.7344 3.293-3.0508 5.4727-3.7266 0.19531-3.832 1.8281-7.2812 4.3672-9.8242 2.707-2.707 6.4531-4.3828 10.59-4.3828 2.9336 0 5.6719 0.84766 7.9883 2.3086 2.0703 1.3086 3.7969 3.1055 5.0156 5.2305 0.53516-0.22266 1.0898-0.41016 1.6602-0.55469 0.92578-0.23438 1.8906-0.35547 2.8828-0.35547 3.2461 0 6.1875 1.3164 8.3164 3.4453 1.9961 1.9961 3.2773 4.707 3.4297 7.7188 2.3359 0.33984 4.4258 1.4648 5.9883 3.0898 1.8008 1.875 2.9141 4.4141 2.9141 7.1992 0 2.8633-1.168 5.4648-3.0547 7.3477-1.8867 1.8867-4.4883 3.0547-7.3477 3.0547h-7.3984v4.5938h6.8047c0.21094-0.875 0.66406-1.6523 1.2773-2.2695 0.875-0.875 2.082-1.4141 3.4141-1.4141s2.5391 0.53906 3.4141 1.4141 1.4141 2.082 1.4141 3.4141-0.53906 2.5391-1.4141 3.4141-2.082 1.4141-3.4141 1.4141-2.5391-0.53906-3.4141-1.4141c-0.61719-0.61719-1.0664-1.3945-1.2773-2.2695h-7.9453c-0.63281 0-1.1445-0.51172-1.1445-1.1445v-5.7383h-2.9141v14.219h5.0703c0.21094-0.875 0.66406-1.6523 1.2773-2.2695 0.875-0.875 2.082-1.4141 3.4141-1.4141s2.5391 0.53906 3.4141 1.4141 1.4141 2.082 1.4141 3.4141-0.53906 2.5391-1.4141 3.4141-2.082 1.4141-3.4141 1.4141-2.5391-0.53906-3.4141-1.4141c-0.61719-0.61719-1.0664-1.3945-1.2773-2.2695h-6.2109c-0.63281 0-1.1445-0.51172-1.1445-1.1445l-0.011718-15.367h-5.2539v21.117h29.734c0.30078 0 0.58984 0.0625 0.85938 0.18359 0.26562 0.12109 0.50391 0.29688 0.70703 0.52734l13.723 15.621c0.23828 0.27344 0.41797 0.56641 0.53516 0.88672 0.11719 0.31641 0.17188 0.65625 0.16797 1.0195l-0.003906 0.25391c0.003906 0.027344 0.003906 0.054688 0.003906 0.085938v2.0312c0 1.1211-0.45703 2.1406-1.1953 2.8789-0.73828 0.73828-1.7578 1.1953-2.8789 1.1953l-85.594 0.007812c-1.1211 0-2.1406-0.45703-2.8789-1.1953s-1.1953-1.7578-1.1953-2.8789zm46.875-5.0977c-1.332 0-2.5391-0.53906-3.4141-1.4141s-1.4141-2.082-1.4141-3.4141 0.53906-2.5391 1.4141-3.4141c0.61719-0.61719 1.3945-1.0664 2.2695-1.2773v-1.6797h-23.094l-9.8906 14.531h62.48l-9.2539-14.527h-17.957v1.6797c0.875 0.21094 1.6523 0.66406 2.2695 1.2773 0.87109 0.875 1.4141 2.082 1.4141 3.4141 0 1.332-0.53906 2.5391-1.4141 3.4141-0.87109 0.86719-2.0781 1.4102-3.4102 1.4102zm-1.7969-3.0312c0.46094 0.46094 1.0938 0.74219 1.7969 0.74219s1.3359-0.28516 1.7969-0.74219c0.46094-0.46094 0.74219-1.0938 0.74219-1.7969s-0.28516-1.3359-0.74219-1.7969c-0.46094-0.46094-1.0938-0.74219-1.7969-0.74219s-1.3359 0.28516-1.7969 0.74219c-0.46094 0.46094-0.74219 1.0938-0.74219 1.7969-0.003906 0.70312 0.28125 1.3359 0.74219 1.7969zm25.379-24.039c0.46094 0.46094 1.0938 0.74219 1.7969 0.74219 0.70313 0 1.3359-0.28516 1.7969-0.74219 0.46094-0.46094 0.74219-1.0938 0.74219-1.7969s-0.28516-1.3359-0.74219-1.7969c-0.46094-0.46094-1.0938-0.74219-1.7969-0.74219-0.70312 0-1.3359 0.28516-1.7969 0.74219-0.46094 0.46094-0.74219 1.0938-0.74219 1.7969-0.003906 0.70312 0.28125 1.3398 0.74219 1.7969zm-6.9375 9.625c0.46094 0.46094 1.0938 0.74219 1.7969 0.74219 0.70313 0 1.3359-0.28516 1.7969-0.74219 0.46094-0.46094 0.74219-1.0938 0.74219-1.7969s-0.28516-1.3359-0.74219-1.7969c-0.46094-0.46094-1.0938-0.74219-1.7969-0.74219-0.70312 0-1.3359 0.28516-1.7969 0.74219-0.46094 0.46094-0.74219 1.0938-0.74219 1.7969s0.28516 1.3359 0.74219 1.7969zm-42.027-8.8789c0.70312 0 1.3359-0.28516 1.7969-0.74219 0.46094-0.46094 0.74219-1.0938 0.74219-1.7969s-0.28516-1.3359-0.74219-1.7969c-0.46094-0.46094-1.0938-0.74219-1.7969-0.74219s-1.3359 0.28516-1.7969 0.74219c-0.46094 0.46094-0.74219 1.0938-0.74219 1.7969s0.28516 1.3359 0.74219 1.7969c0.46094 0.45703 1.0977 0.74219 1.7969 0.74219zm6.9375 9.6211c0.70312 0 1.3359-0.28516 1.7969-0.74219 0.46094-0.46094 0.74219-1.0938 0.74219-1.7969s-0.28516-1.3359-0.74219-1.7969c-0.46094-0.46094-1.0938-0.74219-1.7969-0.74219s-1.3359 0.28516-1.7969 0.74219c-0.46094 0.46094-0.74219 1.0938-0.74219 1.7969s0.28516 1.3359 0.74219 1.7969c0.46094 0.46094 1.0938 0.74219 1.7969 0.74219zm29.246-36.363c-1.4023-1.4023-3.0859-2.5391-4.9648-3.3164-1.8047-0.74609-3.7773-1.1602-5.8359-1.1602-2.0625 0-4.0352 0.41406-5.8359 1.1602-1.875 0.77734-3.5586 1.9102-4.9648 3.3164-0.44531 0.44531-0.44531 1.168 0 1.6172 0.44531 0.44531 1.168 0.44531 1.6172 0 1.2031-1.2031 2.6328-2.168 4.2109-2.8242 1.5273-0.63281 3.2031-0.98047 4.9727-0.98047 1.7656 0 3.4453 0.34766 4.9727 0.98047 1.582 0.65625 3.0117 1.6211 4.2109 2.8242 0.44531 0.44531 1.168 0.44531 1.6172 0 0.44141-0.44922 0.44531-1.1719 0-1.6172zm-3.2422 3.2422c-0.98047-0.98047-2.1602-1.7734-3.4766-2.3203-1.2617-0.52344-2.6445-0.8125-4.0859-0.8125s-2.8203 0.28906-4.0859 0.8125c-1.3164 0.54297-2.4922 1.3398-3.4766 2.3203-0.44531 0.44531-0.44531 1.1719 0 1.6172s1.1719 0.44531 1.6172 0c0.77734-0.77734 1.7031-1.4023 2.7227-1.8281 0.98438-0.41016 2.0703-0.63281 3.2188-0.63281 1.1445 0 2.2305 0.22656 3.2188 0.63281 1.0195 0.42188 1.9453 1.0469 2.7227 1.8281 0.44531 0.44531 1.168 0.44531 1.6172 0 0.45312-0.44531 0.45312-1.1719 0.007812-1.6172zm-3.3789 3.375c-1.0703-1.0703-2.5508-1.7344-4.1836-1.7344-0.79297 0-1.5586 0.16016-2.2578 0.44922-0.73047 0.30469-1.3828 0.74219-1.9258 1.2812-0.44531 0.44531-0.44531 1.168 0 1.6172 0.44531 0.44531 1.1719 0.44531 1.6172 0 0.33984-0.33984 0.73828-0.60938 1.1758-0.78906 0.42188-0.17578 0.89453-0.27344 1.3945-0.27344 1.0039 0 1.9102 0.40625 2.5664 1.0625 0.44531 0.44531 1.168 0.44531 1.6172 0 0.44531-0.44141 0.44531-1.168-0.003906-1.6133zm-13.383 9.5586h30.484c2.2305 0 4.2617-0.91406 5.7305-2.3867 1.4727-1.4727 2.3867-3.5 2.3867-5.7305 0-2.1758-0.86719-4.1602-2.2695-5.6172-1.4141-1.4688-3.3633-2.4141-5.5234-2.4961-0.62891-0.023437-1.1211-0.55078-1.0977-1.1797l0.007812-0.20703c0-0.050782-0.003906-0.007813-0.003906-0.19531 0-2.6172-1.0586-4.9844-2.7734-6.6992-1.7148-1.7148-4.082-2.7734-6.6992-2.7734-0.80859 0-1.5859 0.097656-2.3281 0.28516-0.76562 0.19531-1.4961 0.48047-2.1758 0.84766-0.55469 0.29687-1.2461 0.089843-1.543-0.46484l-0.023438-0.050782h-0.003906c-1.0391-2.1797-2.6758-4.0195-4.6953-5.293-1.957-1.2383-4.2812-1.9531-6.7734-1.9531-3.5078 0-6.6797 1.4219-8.9766 3.7188-2.2969 2.2969-3.7188 5.4727-3.7188 8.9766 0 0.21875-0.007813-0.066406-0.003907 0.042969v0.050781c0.007813 0.55469-0.38281 1.0234-0.91016 1.1289-2.0195 0.44922-3.7891 1.5898-5.0508 3.1602-1.2344 1.5352-1.9766 3.4844-1.9766 5.6016v2.2578c0 2.4648 1.0078 4.7109 2.6367 6.3359s3.8711 2.6367 6.3359 2.6367h5.418zm31 25.691 9.2539 14.527h12.504l-12.762-14.527zm6.5312 4.293 2.8438 4.0234c0.36328 0.51562 1.0742 0.64062 1.5898 0.27734 0.51562-0.36328 0.64062-1.0742 0.27734-1.5898l-2.8438-4.0234c-0.36328-0.51562-1.0742-0.64062-1.5898-0.27734-0.51562 0.35938-0.63672 1.0742-0.27734 1.5898zm-65.219 10.238 9.8906-14.527h-3.9453l-12.578 14.527zm81.473 2.2852h-89.172v1.5117c0 0.49219 0.19922 0.9375 0.52734 1.2617 0.32422 0.32422 0.77344 0.52734 1.2617 0.52734h85.594c0.49219 0 0.9375-0.19922 1.2617-0.52734 0.32422-0.32422 0.52734-0.77344 0.52734-1.2617z" fill-rule="evenodd"/>
<text x="0.0" y="117.5" font-size="5.0" font-weight="bold" font-family="Arbeit Regular, Helvetica, Arial-Unicode, Arial, Sans-serif" fill="#000000">Created by Siti Zulaikah</text><text x="0.0" y="122.5" font-size="5.0" font-weight="bold" font-family="Arbeit Regular, Helvetica, Arial-Unicode, Arial, Sans-serif" fill="#000000">from Noun Project</text></svg>