<svg xmlns="http://www.w3.org/2000/svg" xmlns:xlink="http://www.w3.org/1999/xlink" version="1.1" x="0px" y="0px" viewBox="0 0 128 160" style="enable-background:new 0 0 128 128;" xml:space="preserve"><path d="M70,56h12c4.418,0,8-3.582,8-8V36c0-4.419-3.582-8-8-8H70c-4.418,0-8,3.581-8,8v12C62,52.418,65.582,56,70,56z"/><path d="M58,36c0-4.419-3.582-8-8-8H38c-4.418,0-8,3.581-8,8v12c0,4.418,3.582,8,8,8h12c4.418,0,8-3.582,8-8V36z"/><path d="M50,60H38c-4.418,0-8,3.582-8,8v12c0,4.418,3.582,8,8,8h12c4.418,0,8-3.582,8-8V68C58,63.582,54.418,60,50,60z"/><path d="M70,60c-4.418,0-8,3.582-8,8v28c0,4.418,3.582,8,8,8h28c4.418,0,8-3.582,8-8V68c0-4.418-3.582-8-8-8H70z M97.999,83.588  c0,0.259-0.123,0.396-0.385,0.435c-0.929,0.138-1.856,0.273-2.785,0.403c-0.146,0.021-0.217,0.07-0.253,0.224  c-0.246,1.029-0.65,1.997-1.194,2.906c-0.056,0.092-0.057,0.153,0.012,0.242c0.577,0.749,1.146,1.501,1.718,2.251  c0.194,0.255,0.187,0.427-0.038,0.654c-0.716,0.731-1.429,1.458-2.146,2.188c-0.126,0.13-0.231,0.194-0.345,0.194  c-0.096,0-0.196-0.046-0.32-0.137c-0.764-0.559-1.525-1.112-2.286-1.673c-0.044-0.032-0.186-0.035-0.228-0.008  c-0.976,0.609-2.019,1.054-3.137,1.317c-0.139,0.033-0.165,0.105-0.182,0.219c-0.134,0.94-0.27,1.878-0.408,2.817  C85.983,95.878,85.844,96,85.579,96c-1.054,0-2.104,0-3.159,0c-0.268,0-0.404-0.121-0.445-0.394c-0.136-0.933-0.273-1.864-0.403-2.8  c-0.019-0.137-0.073-0.195-0.21-0.229c-1.02-0.242-1.982-0.637-2.881-1.173c-0.058-0.035-0.252-0.032-0.312,0.014  c-0.737,0.571-1.482,1.135-2.224,1.697c-0.116,0.09-0.216,0.135-0.313,0.135c-0.108,0-0.213-0.057-0.331-0.17  c-0.733-0.718-1.467-1.436-2.199-2.155c-0.231-0.228-0.245-0.395-0.055-0.653c0.556-0.764,1.111-1.529,1.67-2.284  c0.067-0.093,0.07-0.151,0.012-0.246c-0.607-0.97-1.051-2.009-1.313-3.124c-0.034-0.142-0.108-0.171-0.231-0.187  c-0.933-0.135-1.865-0.271-2.799-0.408C70.117,83.984,70,83.847,70,83.57c0-1.048,0-2.093,0-3.141c0-0.276,0.12-0.414,0.385-0.452  c0.934-0.138,1.864-0.273,2.8-0.408c0.118-0.016,0.197-0.042,0.231-0.185c0.243-1.043,0.652-2.021,1.198-2.94  c0.055-0.092,0.06-0.153-0.008-0.242c-0.579-0.749-1.147-1.499-1.72-2.251c-0.193-0.255-0.186-0.427,0.039-0.654  c0.723-0.736,1.442-1.478,2.167-2.209c0.109-0.108,0.214-0.163,0.32-0.166c0.097,0,0.198,0.043,0.31,0.124  c0.765,0.552,1.525,1.108,2.283,1.671c0.05,0.035,0.21,0.038,0.259,0.008c0.964-0.604,2.001-1.041,3.108-1.306  c0.132-0.032,0.179-0.093,0.197-0.223c0.131-0.94,0.269-1.876,0.405-2.817C82.015,68.122,82.155,68,82.42,68  c1.053,0,2.105,0,3.158,0c0.271,0,0.405,0.122,0.444,0.394c0.138,0.933,0.276,1.864,0.406,2.8c0.019,0.137,0.073,0.195,0.21,0.23  c1.018,0.242,1.981,0.637,2.882,1.173c0.057,0.035,0.249,0.032,0.31-0.014c0.736-0.571,1.482-1.135,2.224-1.697  c0.118-0.09,0.219-0.135,0.315-0.135c0.108,0,0.212,0.057,0.329,0.17c0.733,0.718,1.465,1.436,2.199,2.158  c0.232,0.225,0.245,0.392,0.054,0.65c-0.556,0.764-1.11,1.526-1.67,2.284c-0.067,0.093-0.069,0.151-0.011,0.246  c0.605,0.97,1.05,2.009,1.311,3.124c0.032,0.142,0.111,0.168,0.233,0.186c0.932,0.135,1.864,0.271,2.798,0.408  c0.262,0.038,0.387,0.176,0.387,0.435C98,81.47,98,82.53,97.999,83.588z"/><circle cx="84" cy="82" r="6.685"/><path d="M30.106,128h59.787c4.477,0,8.106-3.582,8.106-8v-12H26V20h68v36h4V8c0-4.419-3.63-8-8.106-8H30.106C25.63,0,22,3.581,22,8  v112C22,124.418,25.63,128,30.106,128z M50,116h20c1.104,0,2,0.896,2,2s-0.896,2-2,2H50c-1.104,0-2-0.896-2-2S48.896,116,50,116z   M70,8h4c1.104,0,2,0.896,2,2s-0.896,2-2,2h-4c-1.104,0-2-0.896-2-2S68.896,8,70,8z M46,8h16c1.104,0,2,0.896,2,2s-0.896,2-2,2H46  c-1.104,0-2-0.896-2-2S44.896,8,46,8z"/><text x="0" y="143" fill="#000000" font-size="5px" font-weight="bold" font-family="'Helvetica Neue', Helvetica, Arial-Unicode, Arial, Sans-serif">Created by WEBTECHOPS LLP</text><text x="0" y="148" fill="#000000" font-size="5px" font-weight="bold" font-family="'Helvetica Neue', Helvetica, Arial-Unicode, Arial, Sans-serif">from the Noun Project</text></svg>