<svg xmlns="http://www.w3.org/2000/svg" width="34.152" height="34.152" viewBox="0 0 34.152 34.152">
  <path id="message-circle" d="M3,17.711a14.5,14.5,0,0,0,1.558,6.576,14.711,14.711,0,0,0,13.153,8.134,14.5,14.5,0,0,0,6.576-1.558l9.865,3.288-3.288-9.865a14.5,14.5,0,0,0,1.558-6.577A14.711,14.711,0,0,0,24.287,4.558,14.5,14.5,0,0,0,17.711,3h-.865A14.676,14.676,0,0,0,3,16.845Z" transform="translate(-1.5 -1.5)" fill="#fffced" stroke="#000" stroke-linecap="round" stroke-linejoin="round" stroke-width="3"/>
</svg>
