<svg xmlns="http://www.w3.org/2000/svg" width="29" height="31.995" viewBox="0 0 29 31.995">
  <g id="Group_122" data-name="Group 122" transform="translate(-306 -19.003)">
    <g id="bell" transform="translate(304 18.003)">
      <path id="Path_1" data-name="Path 1" d="M25.5,11a9,9,0,0,0-18,0C7.5,21.5,3,24.5,3,24.5H30s-4.5-3-4.5-13.5" fill="none" stroke="#000" stroke-linecap="round" stroke-linejoin="round" stroke-width="2"/>
      <path id="Path_2" data-name="Path 2" d="M15.46,21a3,3,0,0,1-5.19,0" transform="translate(3.635 9.5)" fill="none" stroke="#000" stroke-linecap="round" stroke-linejoin="round" stroke-width="2"/>
    </g>
    <g id="bell-2" data-name="bell" transform="translate(304 18.003)">
      <path id="Path_1-2" data-name="Path 1" d="M25.5,11a9,9,0,0,0-18,0C7.5,21.5,3,24.5,3,24.5H30s-4.5-3-4.5-13.5" fill="none" stroke="#000" stroke-linecap="round" stroke-linejoin="round" stroke-width="2"/>
      <path id="Path_2-2" data-name="Path 2" d="M15.46,21a3,3,0,0,1-5.19,0" transform="translate(3.635 9.5)" fill="none" stroke="#000" stroke-linecap="round" stroke-linejoin="round" stroke-width="2"/>
    </g>
    <g id="bell-3" data-name="bell" transform="translate(304 18.003)">
      <path id="Path_1-3" data-name="Path 1" d="M25.5,11a9,9,0,0,0-18,0C7.5,21.5,3,24.5,3,24.5H30s-4.5-3-4.5-13.5" fill="none" stroke="#000" stroke-linecap="round" stroke-linejoin="round" stroke-width="2"/>
      <path id="Path_2-3" data-name="Path 2" d="M15.46,21a3,3,0,0,1-5.19,0" transform="translate(3.635 9.5)" fill="none" stroke="#000" stroke-linecap="round" stroke-linejoin="round" stroke-width="2"/>
    </g>
  </g>
</svg>
