<svg xmlns="http://www.w3.org/2000/svg" width="55.35" height="40.254" viewBox="0 0 55.35 40.254">
  <path id="payments_24dp_FILL0_wght400_GRAD0_opsz24" d="M72.707-777.357a7.279,7.279,0,0,1-5.346-2.2,7.279,7.279,0,0,1-2.2-5.346,7.279,7.279,0,0,1,2.2-5.346,7.279,7.279,0,0,1,5.346-2.2,7.279,7.279,0,0,1,5.346,2.2,7.279,7.279,0,0,1,2.2,5.346,7.279,7.279,0,0,1-2.2,5.346A7.279,7.279,0,0,1,72.707-777.357ZM55.1-769.809a4.845,4.845,0,0,1-3.554-1.478,4.845,4.845,0,0,1-1.478-3.554v-20.127a4.845,4.845,0,0,1,1.478-3.554A4.845,4.845,0,0,1,55.1-800H90.318a4.845,4.845,0,0,1,3.554,1.478,4.845,4.845,0,0,1,1.478,3.554v20.127a4.845,4.845,0,0,1-1.478,3.554,4.845,4.845,0,0,1-3.554,1.478Zm5.032-5.032H85.286a4.845,4.845,0,0,1,1.478-3.554,4.845,4.845,0,0,1,3.554-1.478v-10.064a4.845,4.845,0,0,1-3.554-1.478,4.845,4.845,0,0,1-1.478-3.554H60.127a4.845,4.845,0,0,1-1.478,3.554,4.845,4.845,0,0,1-3.554,1.478v10.064a4.845,4.845,0,0,1,3.554,1.478A4.845,4.845,0,0,1,60.127-774.841Zm27.675,15.1H45.032a4.845,4.845,0,0,1-3.554-1.478A4.845,4.845,0,0,1,40-764.778v-27.675h5.032v27.675H87.8ZM55.1-774.841v0Z" transform="translate(-40 800)"/>
</svg>
