<svg xmlns="http://www.w3.org/2000/svg" width="43.168" height="40.896" viewBox="0 0 43.168 40.896">
  <path id="account_balance_wallet_24dp_FILL0_wght400_GRAD0_opsz24" d="M124.544-803.648v0Zm0,4.544a4.376,4.376,0,0,1-3.209-1.335A4.375,4.375,0,0,1,120-803.648v-31.808a4.376,4.376,0,0,1,1.335-3.209A4.376,4.376,0,0,1,124.544-840h31.808a4.375,4.375,0,0,1,3.209,1.335,4.376,4.376,0,0,1,1.335,3.209v5.68h-4.544v-5.68H124.544v31.808h31.808v-5.68H160.9v5.68a4.375,4.375,0,0,1-1.335,3.209,4.375,4.375,0,0,1-3.209,1.335Zm18.176-9.088a4.376,4.376,0,0,1-3.209-1.335,4.376,4.376,0,0,1-1.335-3.209v-13.632a4.375,4.375,0,0,1,1.335-3.209,4.375,4.375,0,0,1,3.209-1.335h15.9a4.375,4.375,0,0,1,3.209,1.335,4.375,4.375,0,0,1,1.335,3.209v13.632a4.376,4.376,0,0,1-1.335,3.209,4.376,4.376,0,0,1-3.209,1.335Zm15.9-4.544v-13.632h-15.9v13.632Zm-9.088-3.408a3.286,3.286,0,0,0,2.414-.994,3.287,3.287,0,0,0,.994-2.414,3.287,3.287,0,0,0-.994-2.414,3.287,3.287,0,0,0-2.414-.994,3.287,3.287,0,0,0-2.414.994,3.287,3.287,0,0,0-.994,2.414,3.287,3.287,0,0,0,.994,2.414A3.286,3.286,0,0,0,149.536-816.144Z" transform="translate(-120 840)"/>
</svg>
