<svg xmlns="http://www.w3.org/2000/svg" width="25.694" height="18.5" viewBox="0 0 25.694 18.5">
  <path id="icons8-visa" d="M2.569,7A2.577,2.577,0,0,0,0,9.569V22.931A2.577,2.577,0,0,0,2.569,25.5H23.125a2.577,2.577,0,0,0,2.569-2.569V9.569A2.577,2.577,0,0,0,23.125,7Zm0,1.028H23.125a1.534,1.534,0,0,1,1.542,1.542V22.931a1.534,1.534,0,0,1-1.542,1.542H2.569a1.534,1.534,0,0,1-1.542-1.542V9.569A1.534,1.534,0,0,1,2.569,8.028Zm12.687,5.348c-1.594,0-2.409.785-2.409,1.783,0,1.8,2.088,1.562,2.088,2.489,0,.157-.12.53-1,.53a3.051,3.051,0,0,1-1.445-.337l-.273,1.22a3.6,3.6,0,0,0,1.654.321c1.086,0,2.586-.831,2.586-2.04,0-1.453-2.088-1.568-2.088-2.216,0-.331.257-.578,1.012-.578a2.294,2.294,0,0,1,1.044.369l.257-1.253A4.5,4.5,0,0,0,15.256,13.375Zm-6.793.112L7.082,17.567S6.988,17.22,6.954,17A5.136,5.136,0,0,0,4.882,14.58L6.1,19.2h1.67l2.313-5.717Zm2.216,0L9.78,19.2h1.526l.915-5.717Zm8.238,0L16.428,19.2h1.51l.305-.819h1.895l.161.819H21.68l-1.172-5.717ZM3.212,13.5s2.983.923,3.678,3.164l-.514-2.6a.919.919,0,0,0-.819-.562ZM19.5,15.142l.418,2.152H18.661Z" transform="translate(0 -7)"/>
</svg>
